<?xml version="1.0" encoding="utf-8"?>
<!-- Generator: Adobe Illustrator 24.0.1, SVG Export Plug-In . SVG Version: 6.00 Build 0)  -->
<svg version="1.1" id="Layer_1" xmlns="http://www.w3.org/2000/svg" xmlns:xlink="http://www.w3.org/1999/xlink" x="0px" y="0px"
	 viewBox="0 0 566.93 566.93" style="enable-background:new 0 0 566.93 566.93;" xml:space="preserve">
<style type="text/css">
	.st0{fill:url(#SVGID_1_);stroke:#231F20;stroke-width:0.25;stroke-miterlimit:10;}
	.st1{fill:url(#SVGID_2_);stroke:#231F20;stroke-width:0.25;stroke-miterlimit:10;}
	.st2{fill:url(#SVGID_3_);stroke:#231F20;stroke-width:0.25;stroke-miterlimit:10;}
	.st3{fill:url(#SVGID_4_);stroke:#231F20;stroke-width:0.25;stroke-miterlimit:10;}
	.st4{fill:url(#SVGID_5_);stroke:#231F20;stroke-width:0.25;stroke-miterlimit:10;}
	.st5{fill:url(#SVGID_6_);}
	.st6{fill:url(#SVGID_7_);}
	.st7{fill:url(#SVGID_8_);}
	.st8{fill:url(#SVGID_9_);stroke:#231F20;stroke-width:0.25;stroke-miterlimit:10;}
	.st9{fill:url(#SVGID_10_);}
	.st10{fill:url(#SVGID_11_);stroke:#231F20;stroke-width:0.25;stroke-miterlimit:10;}
	.st11{fill:url(#SVGID_12_);stroke:#231F20;stroke-width:0.25;stroke-miterlimit:10;}
	.st12{fill:url(#SVGID_13_);stroke:#231F20;stroke-width:0.25;stroke-miterlimit:10;}
	.st13{fill:#0033FF;}
	.st14{fill:url(#SVGID_14_);}
	.st15{fill:url(#SVGID_15_);}
	.st16{fill:url(#SVGID_16_);}
	.st17{fill:url(#SVGID_17_);}
	.st18{fill:url(#SVGID_18_);stroke:#231F20;stroke-width:0.25;stroke-miterlimit:10;}
	.st19{fill:url(#SVGID_19_);stroke:#231F20;stroke-width:0.25;stroke-miterlimit:10;}
</style>
<linearGradient id="SVGID_1_" gradientUnits="userSpaceOnUse" x1="293.0841" y1="283.4646" x2="293.0841" y2="283.4646">
	<stop  offset="2.237672e-07" style="stop-color:#AA1EFF"/>
	<stop  offset="1" style="stop-color:#200589"/>
</linearGradient>
<path class="st0" d="M293.08,283.46"/>
<linearGradient id="SVGID_2_" gradientUnits="userSpaceOnUse" x1="293.0841" y1="283.4646" x2="293.0841" y2="283.4646">
	<stop  offset="2.237672e-07" style="stop-color:#4D4DFF"/>
	<stop  offset="1" style="stop-color:#231F20"/>
</linearGradient>
<path class="st1" d="M293.08,283.46"/>
<linearGradient id="SVGID_3_" gradientUnits="userSpaceOnUse" x1="293.0841" y1="283.4646" x2="293.0841" y2="283.4646">
	<stop  offset="2.237672e-07" style="stop-color:#4D4DFF"/>
	<stop  offset="1" style="stop-color:#231F20"/>
</linearGradient>
<path class="st2" d="M293.08,283.46"/>
<linearGradient id="SVGID_4_" gradientUnits="userSpaceOnUse" x1="293.0841" y1="283.4646" x2="293.0841" y2="283.4646">
	<stop  offset="2.237672e-07" style="stop-color:#AA1EFF"/>
	<stop  offset="1" style="stop-color:#200589"/>
</linearGradient>
<path class="st3" d="M293.08,283.46"/>
<linearGradient id="SVGID_5_" gradientUnits="userSpaceOnUse" x1="293.0841" y1="283.4646" x2="293.0841" y2="283.4646">
	<stop  offset="2.237672e-07" style="stop-color:#4D4DFF"/>
	<stop  offset="1" style="stop-color:#231F20"/>
</linearGradient>
<path class="st4" d="M293.08,283.46"/>
<g>
	<linearGradient id="SVGID_6_" gradientUnits="userSpaceOnUse" x1="283.4746" y1="419.0218" x2="253.0946" y2="419.0218">
		<stop  offset="1.129491e-06" style="stop-color:#0033FF"/>
		<stop  offset="1" style="stop-color:#231F20"/>
	</linearGradient>
	<polygon class="st5" points="283.47,354.33 276.87,514.09 275.58,503.8 253.09,323.95 	"/>
	<linearGradient id="SVGID_7_" gradientUnits="userSpaceOnUse" x1="147.8987" y1="283.4546" x2="147.8987" y2="253.0945">
		<stop  offset="1.129491e-06" style="stop-color:#0033FF"/>
		<stop  offset="1" style="stop-color:#231F20"/>
	</linearGradient>
	<polygon class="st6" points="242.95,253.09 212.59,283.45 52.84,276.85 63.17,275.56 	"/>
	<linearGradient id="SVGID_8_" gradientUnits="userSpaceOnUse" x1="419.012" y1="283.4546" x2="419.012" y2="313.8346">
		<stop  offset="1.129491e-06" style="stop-color:#0033FF"/>
		<stop  offset="1" style="stop-color:#231F20"/>
	</linearGradient>
	<polygon class="st7" points="514.05,290.06 503.73,291.35 323.97,313.83 354.33,283.45 	"/>
	<linearGradient id="SVGID_9_" gradientUnits="userSpaceOnUse" x1="566.9313" y1="283.4641" x2="566.9313" y2="283.4641">
		<stop  offset="1.129491e-06" style="stop-color:#0033FF"/>
		<stop  offset="1" style="stop-color:#231F20"/>
	</linearGradient>
	<path class="st8" d="M566.93,283.46"/>
	<linearGradient id="SVGID_10_" gradientUnits="userSpaceOnUse" x1="283.4746" y1="147.6425" x2="313.8346" y2="147.6425">
		<stop  offset="1.129491e-06" style="stop-color:#0033FF"/>
		<stop  offset="1" style="stop-color:#231F20"/>
	</linearGradient>
	<polygon class="st9" points="313.83,242.95 283.47,212.59 290.01,52.33 291.29,62.54 	"/>
	<linearGradient id="SVGID_11_" gradientUnits="userSpaceOnUse" x1="566.9313" y1="283.4641" x2="566.9313" y2="283.4641">
		<stop  offset="1.129491e-06" style="stop-color:#0033FF"/>
		<stop  offset="1" style="stop-color:#231F20"/>
	</linearGradient>
	<path class="st10" d="M566.93,283.46"/>
	<linearGradient id="SVGID_12_" gradientUnits="userSpaceOnUse" x1="354.3329" y1="283.4641" x2="354.3329" y2="283.4641">
		<stop  offset="1.129491e-06" style="stop-color:#0033FF"/>
		<stop  offset="1" style="stop-color:#231F20"/>
	</linearGradient>
	<path class="st11" d="M354.33,283.46"/>
	<linearGradient id="SVGID_13_" gradientUnits="userSpaceOnUse" x1="283.4668" y1="283.4641" x2="283.4668" y2="283.4641">
		<stop  offset="1.129491e-06" style="stop-color:#0033FF"/>
		<stop  offset="1" style="stop-color:#231F20"/>
	</linearGradient>
	<path class="st12" d="M283.47,283.46"/>
	<polygon class="st13" points="514.05,290.06 354.33,283.45 295.11,46.53 283.47,-0.01 	"/>
	<polygon class="st13" points="566.93,283.45 276.87,514.09 283.47,354.33 519.67,295.27 	"/>
	<linearGradient id="SVGID_14_" gradientUnits="userSpaceOnUse" x1="407.4845" y1="354.3346" x2="407.4845" y2="283.4546">
		<stop  offset="1.129491e-06" style="stop-color:#0033FF"/>
		<stop  offset="1" style="stop-color:#231F20"/>
	</linearGradient>
	<polygon class="st14" points="566.93,283.45 519.67,295.27 283.47,354.33 253.09,323.95 248.03,283.45 283.47,318.89 
		323.97,313.83 526.43,288.51 	"/>
	<linearGradient id="SVGID_15_" gradientUnits="userSpaceOnUse" x1="354.3346" y1="159.4445" x2="283.4746" y2="159.4445">
		<stop  offset="1.129491e-06" style="stop-color:#0033FF"/>
		<stop  offset="1" style="stop-color:#231F20"/>
	</linearGradient>
	<polygon class="st15" points="354.33,283.45 323.97,313.83 283.47,318.89 318.89,283.45 313.83,242.95 288.45,39.87 283.47,-0.01 
		295.11,46.53 	"/>
	<polygon class="st13" points="290.01,52.33 283.47,212.59 47.21,271.65 -0.01,283.45 	"/>
	<linearGradient id="SVGID_16_" gradientUnits="userSpaceOnUse" x1="159.4446" y1="212.5945" x2="159.4446" y2="283.4546">
		<stop  offset="1.129491e-06" style="stop-color:#0033FF"/>
		<stop  offset="1" style="stop-color:#231F20"/>
	</linearGradient>
	<polygon class="st16" points="318.89,283.45 283.47,248.03 242.95,253.09 40.47,278.39 -0.01,283.45 47.21,271.65 283.47,212.59 
		313.83,242.95 	"/>
	<polygon class="st13" points="283.47,566.93 52.84,276.85 212.59,283.45 271.65,519.67 	"/>
	<linearGradient id="SVGID_17_" gradientUnits="userSpaceOnUse" x1="212.5946" y1="407.4846" x2="283.4746" y2="407.4846">
		<stop  offset="1.129491e-06" style="stop-color:#0033FF"/>
		<stop  offset="1" style="stop-color:#231F20"/>
	</linearGradient>
	<polygon class="st17" points="278.41,526.43 283.47,566.93 271.65,519.67 212.59,283.45 242.95,253.09 283.47,248.03 
		248.03,283.45 253.09,323.95 	"/>
</g>
<linearGradient id="SVGID_18_" gradientUnits="userSpaceOnUse" x1="293.0841" y1="283.4646" x2="293.0841" y2="283.4646">
	<stop  offset="2.237672e-07" style="stop-color:#4D4DFF"/>
	<stop  offset="1" style="stop-color:#231F20"/>
</linearGradient>
<path class="st18" d="M293.08,283.46"/>
<linearGradient id="SVGID_19_" gradientUnits="userSpaceOnUse" x1="293.0841" y1="283.4646" x2="293.0841" y2="283.4646">
	<stop  offset="2.237672e-07" style="stop-color:#4D4DFF"/>
	<stop  offset="1" style="stop-color:#231F20"/>
</linearGradient>
<path class="st19" d="M293.08,283.46"/>
</svg>
